<?xml version="1.0" encoding="UTF-8"?>
<svg id="Ebene_1" data-name="Ebene 1" xmlns="http://www.w3.org/2000/svg" viewBox="0 0 247.03 166.04">
  <defs>
    <style>
      .cls-1 {
        fill: #fff;
        stroke-width: 0px;
      }
    </style>
  </defs>
  <path class="cls-1" d="m137.07,124.13c-12.17,9.78-23.89,19.37-35.8,28.74-31.98,25.16-84.1,13.85-97.91-30.36-7.88-25.21-1.95-48.14,18.22-65.77,19.87-17.36,42.76-20.14,67.21-10.42,1.38.55,2.74,1.14,4.11,1.68.1.04.28-.12.41-.18-.89-4.49-2.4-8.95-2.56-13.46-.9-24.91,23.91-41.57,46.61-31.25,11.05,5.03,21.74,10.86,32.71,16.08,2.26,1.07,5.12,1.66,7.59,1.38,34.6-3.85,65.09,20.44,69.02,56.51,3.66,33.58-20.99,63.08-53.2,67.5-20.13,2.76-37.49-3-52.37-16.64-1.21-1.11-2.4-2.26-4.03-3.81ZM62.67,46.98c-31.56.2-56.73,25.61-56.55,57.1.17,30.68,25.61,56.06,56.11,55.97,32.1-.1,57.45-25.21,57.34-56.78-.11-31.09-25.79-56.49-56.89-56.29Zm79.33,73.16c1.8,1.88,3.08,3.39,4.53,4.71,18.26,16.62,46.09,19.2,67.29,6.27,21.56-13.14,31.83-38.97,25.29-63.16-1.03-3.83-2.87-6.26-6.56-8.02-18.18-8.66-36.6-16.94-54.17-26.73-9.08-5.06-16.38-4.2-23.7,1.48-5.74,4.45-10.81,9.76-16.09,14.78-1.17,1.11-1.98,2.61-3.2,4.25-2.84-1.38-5.49-2.71-8.17-3.97-5.37-2.53-9.12-1.76-11.24,2.25-2.08,3.94-.39,7.61,4.89,10.24,8.64,4.31,17.44,8.32,25.93,12.91,4.14,2.24,6.21,1.99,9.13-2.16,7.91-11.26,23.2-14.76,35.8-9,12.67,5.8,19.45,19.7,16.38,33.58-2.93,13.22-14.86,22.65-28.54,22.84-9.68.13-17.25-4.13-23.91-11.25-4.58,3.68-8.93,7.18-13.66,10.98Zm26.14-29.19c-18.75-8.89-36.45-17.28-54.15-25.67,12.98,20.71,14.74,41.92,7.3,64.62,15.29-12.72,30.58-25.43,46.85-38.96Z"/>
  <path class="cls-1" d="m146.97,55.08c6.93-6.59,13.95-10.02,21.77-11.82.84-.19,2.72,1.17,2.96,2.11.25.96-.62,2.88-1.53,3.36-5.24,2.75-10.54,5.46-16.05,7.58-1.65.64-4.05-.63-7.15-1.23Z"/>
</svg>